<mxfile><diagram id="8Es4Lq30lyslWE9KbWkH" name="Página-1"><mxGraphModel dx="1008" dy="606" grid="0" gridSize="10" guides="1" tooltips="1" connect="1" arrows="1" fold="1" page="1" pageScale="1" pageWidth="827" pageHeight="1169" background="#ffffff" math="0" shadow="0"><root><mxCell id="0"/><mxCell id="1" parent="0"/><mxCell id="8" value="Pessoa" style="swimlane;whiteSpace=wrap;html=1;labelBackgroundColor=#FFFFFF;fontColor=#000000;fillColor=#FFFFFF;gradientColor=none;strokeWidth=2;perimeterSpacing=2;strokeColor=#000000;" parent="1" vertex="1"><mxGeometry x="150" y="60" width="220" height="140" as="geometry"/></mxCell><mxCell id="9" value="- nome: String" style="text;html=1;strokeColor=none;fillColor=none;align=center;verticalAlign=middle;whiteSpace=wrap;rounded=0;labelBackgroundColor=#FFFFFF;fontColor=#000000;" parent="8" vertex="1"><mxGeometry x="10" y="30" width="130" height="30" as="geometry"/></mxCell><mxCell id="10" value="- endereço: String" style="text;html=1;align=center;verticalAlign=middle;resizable=0;points=[];autosize=1;strokeColor=none;fillColor=none;fontColor=#000000;" parent="8" vertex="1"><mxGeometry x="20" y="50" width="120" height="30" as="geometry"/></mxCell><mxCell id="11" value="" style="shape=link;html=1;fontColor=#000000;strokeColor=#000000;width=6;" parent="8" edge="1"><mxGeometry width="100" relative="1" as="geometry"><mxPoint y="110" as="sourcePoint"/><mxPoint x="220" y="110" as="targetPoint"/></mxGeometry></mxCell><mxCell id="20" style="edgeStyle=none;html=1;exitX=0.5;exitY=0;exitDx=0;exitDy=0;strokeColor=#000000;fontColor=#000000;endArrow=diamond;endFill=0;" parent="1" source="13" edge="1"><mxGeometry relative="1" as="geometry"><mxPoint x="220" y="200" as="targetPoint"/></mxGeometry></mxCell><mxCell id="13" value="Aluno" style="swimlane;whiteSpace=wrap;html=1;labelBackgroundColor=#FFFFFF;fontColor=#000000;fillColor=#FFFFFF;gradientColor=none;strokeWidth=2;perimeterSpacing=2;strokeColor=#000000;" parent="1" vertex="1"><mxGeometry x="10" y="320" width="220" height="60" as="geometry"/></mxCell><mxCell id="14" value="- matrícula: int" style="text;html=1;strokeColor=none;fillColor=none;align=center;verticalAlign=middle;whiteSpace=wrap;rounded=0;labelBackgroundColor=#FFFFFF;fontColor=#000000;" parent="13" vertex="1"><mxGeometry x="10" y="30" width="130" height="30" as="geometry"/></mxCell><mxCell id="21" style="edgeStyle=none;html=1;exitX=0.5;exitY=0;exitDx=0;exitDy=0;entryX=0.5;entryY=1;entryDx=0;entryDy=0;strokeColor=#000000;fontColor=#000000;endArrow=diamond;endFill=0;" parent="1" source="18" target="8" edge="1"><mxGeometry relative="1" as="geometry"/></mxCell><mxCell id="36" style="edgeStyle=none;html=1;exitX=0.75;exitY=0;exitDx=0;exitDy=0;entryX=0;entryY=0.75;entryDx=0;entryDy=0;strokeColor=#000000;fontColor=#000000;endArrow=none;endFill=0;verticalAlign=top;" parent="1" source="18" target="22" edge="1"><mxGeometry relative="1" as="geometry"/></mxCell><mxCell id="40" style="edgeStyle=none;html=1;exitX=1;exitY=0.5;exitDx=0;exitDy=0;entryX=0;entryY=0.25;entryDx=0;entryDy=0;strokeColor=#000000;fontColor=#000000;endArrow=none;endFill=0;" parent="1" source="18" target="28" edge="1"><mxGeometry relative="1" as="geometry"/></mxCell><mxCell id="18" value="Professor" style="swimlane;whiteSpace=wrap;html=1;labelBackgroundColor=#FFFFFF;fontColor=#000000;fillColor=#FFFFFF;gradientColor=none;strokeWidth=2;perimeterSpacing=2;strokeColor=#000000;startSize=23;" parent="1" vertex="1"><mxGeometry x="310" y="320" width="220" height="70" as="geometry"/></mxCell><mxCell id="19" value="- titutlação: String&lt;br&gt;&lt;div style=&quot;text-align: left;&quot;&gt;-curso: String&lt;/div&gt;" style="text;html=1;strokeColor=none;fillColor=none;align=center;verticalAlign=middle;whiteSpace=wrap;rounded=0;labelBackgroundColor=#FFFFFF;fontColor=#000000;" parent="18" vertex="1"><mxGeometry x="10" y="30" width="130" height="30" as="geometry"/></mxCell><mxCell id="22" value="Curso" style="swimlane;whiteSpace=wrap;html=1;labelBackgroundColor=#FFFFFF;fontColor=#000000;fillColor=#FFFFFF;gradientColor=none;strokeWidth=2;perimeterSpacing=2;strokeColor=#000000;" parent="1" vertex="1"><mxGeometry x="550" y="60" width="285" height="240" as="geometry"/></mxCell><mxCell id="23" value="- nome: String&lt;br&gt;- professor: list&lt;br&gt;- aluno: list&lt;br&gt;- disciplina: list" style="text;html=1;strokeColor=none;fillColor=none;align=left;verticalAlign=middle;whiteSpace=wrap;rounded=0;labelBackgroundColor=#FFFFFF;fontColor=#000000;" parent="22" vertex="1"><mxGeometry x="10" y="40" width="130" height="30" as="geometry"/></mxCell><mxCell id="25" value="" style="shape=link;html=1;fontColor=#000000;strokeColor=#000000;width=6;" parent="22" edge="1"><mxGeometry width="100" relative="1" as="geometry"><mxPoint y="110" as="sourcePoint"/><mxPoint x="284.6666259765625" y="112" as="targetPoint"/></mxGeometry></mxCell><mxCell id="27" value="+ cadastrarProfessor(Professor profTemp ): void&lt;br&gt;&lt;div style=&quot;&quot;&gt;&lt;span style=&quot;background-color: initial;&quot;&gt;+ cadastrarAluno(Aluno alunoTemp): void&lt;/span&gt;&lt;/div&gt;&lt;div style=&quot;&quot;&gt;&lt;span style=&quot;background-color: initial;&quot;&gt;+cadastrarDisciplina(Disciplina discTemp): void&lt;/span&gt;&lt;/div&gt;&lt;div style=&quot;&quot;&gt;&lt;span style=&quot;background-color: initial;&quot;&gt;+imprimirListaDeProfessores(): void&lt;/span&gt;&lt;/div&gt;&lt;div style=&quot;&quot;&gt;&lt;span style=&quot;background-color: initial;&quot;&gt;+imprimirListaDeAlunos(): void&lt;/span&gt;&lt;/div&gt;&lt;div style=&quot;&quot;&gt;&lt;span style=&quot;background-color: initial;&quot;&gt;+impirmirListaDeDisciplinas(): void&lt;/span&gt;&lt;/div&gt;&lt;div style=&quot;&quot;&gt;&lt;span style=&quot;background-color: initial;&quot;&gt;+procurarProfessor(): Professor&lt;/span&gt;&lt;/div&gt;" style="text;html=1;align=left;verticalAlign=middle;resizable=0;points=[];autosize=1;strokeColor=none;fillColor=none;fontColor=#000000;" parent="22" vertex="1"><mxGeometry x="11" y="117" width="274" height="113" as="geometry"/></mxCell><mxCell id="43" style="edgeStyle=none;html=1;exitX=0.5;exitY=0;exitDx=0;exitDy=0;entryX=0.5;entryY=1;entryDx=0;entryDy=0;strokeColor=#000000;fontColor=#000000;endArrow=none;endFill=0;" parent="1" source="28" target="22" edge="1"><mxGeometry relative="1" as="geometry"/></mxCell><mxCell id="28" value="Disciplina" style="swimlane;whiteSpace=wrap;html=1;labelBackgroundColor=#FFFFFF;fontColor=#000000;fillColor=#FFFFFF;gradientColor=none;strokeWidth=2;perimeterSpacing=2;strokeColor=#000000;startSize=23;" parent="1" vertex="1"><mxGeometry x="580" y="365" width="220" height="104" as="geometry"/></mxCell><mxCell id="29" value="- nome: string&lt;br&gt;- ch: int&lt;br&gt;- professor: Professor" style="text;html=1;strokeColor=none;fillColor=none;align=left;verticalAlign=middle;whiteSpace=wrap;rounded=0;labelBackgroundColor=#FFFFFF;fontColor=#000000;" parent="28" vertex="1"><mxGeometry x="5" y="41" width="130" height="30" as="geometry"/></mxCell><mxCell id="32" value="" style="endArrow=none;html=1;strokeColor=#000000;fontColor=#000000;entryX=0.25;entryY=0;entryDx=0;entryDy=0;endFill=0;" parent="1" target="22" edge="1"><mxGeometry relative="1" as="geometry"><mxPoint x="31" y="316" as="sourcePoint"/><mxPoint x="571" y="14" as="targetPoint"/><Array as="points"><mxPoint x="28" y="239"/><mxPoint x="26" y="16"/><mxPoint x="307" y="23"/><mxPoint x="620" y="23"/></Array></mxGeometry></mxCell><mxCell id="33" value="" style="edgeLabel;resizable=0;html=1;align=center;verticalAlign=middle;labelBackgroundColor=#FFFFFF;strokeColor=#000000;strokeWidth=2;fontColor=#000000;fillColor=#FFFFFF;gradientColor=none;" parent="32" connectable="0" vertex="1"><mxGeometry relative="1" as="geometry"/></mxCell><mxCell id="34" value="1...*" style="edgeLabel;resizable=0;html=1;align=left;verticalAlign=bottom;labelBackgroundColor=#FFFFFF;strokeColor=#000000;strokeWidth=2;fontColor=#000000;fillColor=#FFFFFF;gradientColor=none;" parent="32" connectable="0" vertex="1"><mxGeometry x="-1" relative="1" as="geometry"/></mxCell><mxCell id="35" value="1" style="edgeLabel;resizable=0;html=1;align=right;verticalAlign=bottom;labelBackgroundColor=#FFFFFF;strokeColor=#000000;strokeWidth=2;fontColor=#000000;fillColor=#FFFFFF;gradientColor=none;" parent="32" connectable="0" vertex="1"><mxGeometry x="1" relative="1" as="geometry"/></mxCell><mxCell id="37" value="1...*" style="text;html=1;strokeColor=none;fillColor=none;align=center;verticalAlign=middle;whiteSpace=wrap;rounded=0;labelBackgroundColor=#FFFFFF;strokeWidth=2;fontColor=#000000;" parent="1" vertex="1"><mxGeometry x="449" y="297" width="34" height="30" as="geometry"/></mxCell><mxCell id="38" value="1" style="text;html=1;align=center;verticalAlign=middle;resizable=0;points=[];autosize=1;strokeColor=none;fillColor=none;fontColor=#000000;" parent="1" vertex="1"><mxGeometry x="525" y="213" width="25" height="26" as="geometry"/></mxCell><mxCell id="41" value="1" style="text;html=1;align=center;verticalAlign=middle;resizable=0;points=[];autosize=1;strokeColor=none;fillColor=none;fontColor=#000000;" parent="1" vertex="1"><mxGeometry x="526" y="324" width="25" height="26" as="geometry"/></mxCell><mxCell id="42" value="1...*" style="text;html=1;align=center;verticalAlign=middle;resizable=0;points=[];autosize=1;strokeColor=none;fillColor=none;fontColor=#000000;" parent="1" vertex="1"><mxGeometry x="548" y="387" width="39" height="26" as="geometry"/></mxCell><mxCell id="44" value="1...*" style="text;html=1;align=center;verticalAlign=middle;resizable=0;points=[];autosize=1;strokeColor=none;fillColor=none;fontColor=#000000;" parent="1" vertex="1"><mxGeometry x="693" y="340" width="39" height="26" as="geometry"/></mxCell><mxCell id="45" value="1" style="text;html=1;align=center;verticalAlign=middle;resizable=0;points=[];autosize=1;strokeColor=none;fillColor=none;fontColor=#000000;" parent="1" vertex="1"><mxGeometry x="673" y="294" width="25" height="26" as="geometry"/></mxCell></root></mxGraphModel></diagram></mxfile>